PathFileType	4	(X/Y/Z)	/home/abdul/Desktop/myosuite/custom_workspace/IK/output/S19_12_3.trc
DataRate	CameraRate	NumFrames	NumMarkers	Units	OrigDataRate	OrigDataStartFrame	OrigNumFrames
200.0	200.0	39	3	mm	200.0	557	1483
Frame#	Time	V_Shoulder			V_Elbow			V_Wrist		
		X1	Y1	Z1	X2	Y2	Z2	X3	Y3	Z3

557	2.78	-103.52617642808292	701.0881832816012	327.7113526375343				-124.71665707112462	457.2365695492594	230.97778576109863
558	2.785	-103.52394125762676	701.3484509093678	327.7450104906736				-124.81202162744518	457.84372232821556	231.4737268041401
559	2.79	-103.52084295246534	701.6029036855675	327.77787723108116				-124.90723141520539	458.4283854173689	231.95006507284324
560	2.795	-103.51691162921115	701.8515071952664	327.8099435883668				-125.00204672680738	458.9903219609242	232.40676893557043
561	2.8	-103.51217748490602	702.0942292537256	327.8412007768948				-125.0962313581743	459.52931869103634	232.84382763836913
562	2.805	-103.50667073847137	702.331040007857	327.8716405361863				-125.1895534893809	460.04518637555077	233.26125147306786
563	2.81	-103.50042157286141	702.5619120361802	327.9012551699538				-125.28178652964185	460.53776019460815	233.65907186989833
564	2.815	-103.49346007806308	702.7868204469332	327.93003758362244				-125.37270992415459	461.0069000453554	234.03734141453043
565	2.82	-103.48581619508404	703.0057429739819	327.9579813201966				-125.46210992048006	461.45249077433937	234.39613378978953
566	2.825	-103.47751966106819	703.2186600701824	327.9850805943379				-125.54978029233442	461.87444233748363	234.7355436427015
567	2.83	-103.46859995567398	703.4255549978615	328.01133032452486				-125.63552301885784	462.27268988788137	235.05568637788173
568	2.835	-103.45908624884845	703.6264139160797	328.0367261631721				-125.71914891762273	462.64719379195856	235.35669787864242
569	2.84	-103.44900735012577	703.8212259643591	328.06126452459284				-125.80047822984075	462.99793957488305	235.63873415754352
570	2.845	-103.43839165957381	704.0099833425601	328.0849426106968				-125.8793411564267	463.3249377964063	235.9019709384481
571	2.85	-103.42726712050886	704.1926813866104	328.1077584343225				-125.95557834377715	463.62822385862796	236.14660317246378
572	2.855	-103.41566117409225	704.3693186397949	328.12971084011065				-126.02904131831981	463.9078577474619	236.37284449045677
573	2.86	-103.40360071591783	704.5398969193329	328.15079952283673				-126.09959286908955	464.1639237098608	236.5809265951121
574	2.865	-103.3911120546927	704.7044213779815	328.1710250431244				-126.16710737778342	464.3965298691155	236.7710985957797
575	2.87	-103.37822087310792	704.862900560419	328.1903888404761				-126.23147109594376	464.60580778078963	236.94362628959257
576	2.875	-103.3649521909884	705.0153464541762	328.2088932435625				-126.29258236911315	464.7919119320735	237.0987913925665
577	2.88	-103.35133033080513	705.1617745349059	328.22654147772346				-126.3503518079965	464.95501918754394	237.23689072459197
578	2.885	-103.33737888562467	705.302203805791	328.2433376696441				-126.40470240685593	465.0953281844993	237.35823535240445
579	2.89	-103.32312068956435	705.4366568309109	328.25928684917676				-126.45556960955048	465.2130586811929	237.46314969477027
580	2.895	-103.30857779081292	705.5651597624118	328.2743949482914				-126.50290132381647	465.30845086142284	237.5519705942514
581	2.9	-103.29377142726914	705.6877423613302	328.2886687971474				-126.54665788456484	465.3817645990441	237.62504636001142
582	2.905	-103.27872200484217	705.8044380119546	328.3021161172878				-126.58681196714758	465.4332786860482	237.68273578619701
583	2.91	-103.26344907844957	705.9152837296152	328.31474551196925				-126.62334845171841	465.4632900279115	237.72540715047643
584	2.915	-103.24797133574019	706.0203201618227	328.32656645364864				-126.65626423998006	465.4721128099437	237.75343719733524
585	2.92	-103.23230658356094	706.1195915826889	328.3375892686602				-126.68556802577419	465.4600776383656	237.7672101107222
586	2.925	-103.21647173717734	706.2131458805861	328.34782511912215				-126.71128002112837	465.4275306598262	237.76711648060507
587	2.93	-103.2004828122499	706.3010345390185	328.35728598212586				-126.73343163952688	465.3748326630169	237.75355226793664
588	2.935	-103.18435491955915	706.3833126107035	328.3659846262671				-126.75206513831984	465.3023581659669	237.7269177724478
589	2.94	-103.16810226246407	706.4600386848764	328.373934585589				-126.76723322232556	465.21049449250654	237.68761660757545
590	2.945	-103.15173813706997	706.5312748478485	328.381150131014				-126.77899861081593	465.09964084126614	237.63605468670153
591	2.95	-103.13527493507347	706.5970866368801	328.38764623935253				-126.78743357020153	464.97020735043566	237.57263922472663
592	2.955	-103.11872414924467	706.6575429874302	328.39343855998186				-126.79261941485348	464.8226141613512	237.49777775882535
593	2.96	-103.10209638149765	706.7127161738787	328.39854337929756				-126.79464597861079	464.65729048379876	237.41187719203884
594	2.965	-103.0854013534933	706.7626817438259	328.4029775830481				-126.79361105962533	464.4746736657322	237.31534286314604
595	2.97	-103.06864791971073	706.8075184460964	328.4067586166671				-126.78961984129141	464.27520826989877	237.2085776460289
